<?xml version="1.0" encoding="UTF-8"?><svg xmlns="http://www.w3.org/2000/svg" xmlns:xlink="http://www.w3.org/1999/xlink" fill-opacity="1" color-rendering="auto" color-interpolation="auto" text-rendering="auto" stroke="black" stroke-linecap="square" width="876" stroke-miterlimit="10" shape-rendering="auto" stroke-opacity="1" fill="black" stroke-dasharray="none" font-weight="normal" stroke-width="1" height="677" font-family="'Dialog'" font-style="normal" stroke-linejoin="miter" font-size="12px" stroke-dashoffset="0" image-rendering="auto">
  <!--Generated by ySVG 2.6-->
  <defs id="genericDefs"/>
  <g>
    <defs id="defs1">
      <clipPath clipPathUnits="userSpaceOnUse" id="clipPath1">
        <path d="M0 0 L876 0 L876 677 L0 677 L0 0 Z"/>
      </clipPath>
      <clipPath clipPathUnits="userSpaceOnUse" id="clipPath2">
        <path d="M133 103 L1009 103 L1009 780 L133 780 L133 103 Z"/>
      </clipPath>
      <clipPath clipPathUnits="userSpaceOnUse" id="clipPath3">
        <path d="M0 0 L0 256 L207 256 L207 0 Z"/>
      </clipPath>
      <clipPath clipPathUnits="userSpaceOnUse" id="clipPath4">
        <path d="M-1 -1 L0 0 L205 0 L206 -1 Z"/>
      </clipPath>
      <clipPath clipPathUnits="userSpaceOnUse" id="clipPath5">
        <path d="M-1 -1 L0 0 L254 0 L255 -1 L-1 -1 Z"/>
      </clipPath>
      <clipPath clipPathUnits="userSpaceOnUse" id="clipPath6">
        <path d="M205 0 L206 -1 L-1 -1 L0 0 Z"/>
      </clipPath>
      <clipPath clipPathUnits="userSpaceOnUse" id="clipPath7">
        <path d="M255 -1 L-1 -1 L0 0 L254 0 L255 -1 Z"/>
      </clipPath>
      <clipPath clipPathUnits="userSpaceOnUse" id="clipPath8">
        <path d="M-1 -1 L0 0 L78 0 L79 -1 Z"/>
      </clipPath>
      <clipPath clipPathUnits="userSpaceOnUse" id="clipPath9">
        <path d="M-1 -1 L0 0 L21 0 L22 -1 L-1 -1 Z"/>
      </clipPath>
      <clipPath clipPathUnits="userSpaceOnUse" id="clipPath10">
        <path d="M78 0 L79 -1 L-1 -1 L0 0 Z"/>
      </clipPath>
      <clipPath clipPathUnits="userSpaceOnUse" id="clipPath11">
        <path d="M22 -1 L-1 -1 L0 0 L21 0 L22 -1 Z"/>
      </clipPath>
      <clipPath clipPathUnits="userSpaceOnUse" id="clipPath12">
        <path d="M-1 -1 L0 0 L67 0 L68 -1 Z"/>
      </clipPath>
      <clipPath clipPathUnits="userSpaceOnUse" id="clipPath13">
        <path d="M67 0 L68 -1 L-1 -1 L0 0 Z"/>
      </clipPath>
      <clipPath clipPathUnits="userSpaceOnUse" id="clipPath14">
        <path d="M-1 -1 L0 0 L44 0 L45 -1 Z"/>
      </clipPath>
      <clipPath clipPathUnits="userSpaceOnUse" id="clipPath15">
        <path d="M44 0 L45 -1 L-1 -1 L0 0 Z"/>
      </clipPath>
    </defs>
    <g fill="white" text-rendering="geometricPrecision" shape-rendering="geometricPrecision" transform="translate(-133,-103)" stroke="white">
      <rect x="133" width="876" height="677" y="103" clip-path="url(#clipPath2)" stroke="none"/>
    </g>
    <g fill="rgb(255,204,0)" text-rendering="geometricPrecision" shape-rendering="geometricPrecision" transform="matrix(1,0,0,1,-133,-103)" stroke="rgb(255,204,0)">
      <rect x="756" width="215" height="48" y="242" clip-path="url(#clipPath2)" stroke="none"/>
    </g>
    <g text-rendering="geometricPrecision" stroke-miterlimit="1.45" shape-rendering="geometricPrecision" transform="matrix(1,0,0,1,-133,-103)" stroke-linecap="butt">
      <rect fill="none" x="756" width="215" height="48" y="242" clip-path="url(#clipPath2)"/>
      <text x="802.5771" xml:space="preserve" y="256.4023" clip-path="url(#clipPath2)" font-family="sans-serif" stroke="none">checkin started topic</text>
      <text x="861.6016" xml:space="preserve" y="270.5352" clip-path="url(#clipPath2)" font-family="sans-serif" stroke="none"> </text>
      <text x="765.6719" xml:space="preserve" y="284.668" clip-path="url(#clipPath2)" font-family="sans-serif" stroke="none">(key=deskId, body=TerminalInfo)</text>
    </g>
    <g fill="rgb(255,204,0)" text-rendering="geometricPrecision" shape-rendering="geometricPrecision" transform="matrix(1,0,0,1,-133,-103)" stroke="rgb(255,204,0)">
      <rect x="447" width="246" height="48" y="242" clip-path="url(#clipPath2)" stroke="none"/>
    </g>
    <g text-rendering="geometricPrecision" stroke-miterlimit="1.45" shape-rendering="geometricPrecision" transform="matrix(1,0,0,1,-133,-103)" stroke-linecap="butt">
      <rect fill="none" x="447" width="246" height="48" y="242" clip-path="url(#clipPath2)"/>
      <text x="498.9346" xml:space="preserve" y="256.4023" clip-path="url(#clipPath2)" font-family="sans-serif" stroke="none">checkin completed topic</text>
      <text x="568.1016" xml:space="preserve" y="270.5352" clip-path="url(#clipPath2)" font-family="sans-serif" stroke="none"> </text>
      <text x="472.1719" xml:space="preserve" y="284.668" clip-path="url(#clipPath2)" font-family="sans-serif" stroke="none">(key=deskId, body=TerminalInfo)</text>
    </g>
    <g fill="rgb(255,204,0)" text-rendering="geometricPrecision" shape-rendering="geometricPrecision" transform="matrix(1,0,0,1,-133,-103)" stroke="rgb(255,204,0)">
      <rect x="155" width="255" height="48" y="242" clip-path="url(#clipPath2)" stroke="none"/>
    </g>
    <g text-rendering="geometricPrecision" stroke-miterlimit="1.45" shape-rendering="geometricPrecision" transform="matrix(1,0,0,1,-133,-103)" stroke-linecap="butt">
      <rect fill="none" x="155" width="255" height="48" y="242" clip-path="url(#clipPath2)"/>
      <text x="214.8975" xml:space="preserve" y="256.4023" clip-path="url(#clipPath2)" font-family="sans-serif" stroke="none">checkin cancelled topic</text>
      <text x="280.6016" xml:space="preserve" y="270.5352" clip-path="url(#clipPath2)" font-family="sans-serif" stroke="none"> </text>
      <text x="184.6719" xml:space="preserve" y="284.668" clip-path="url(#clipPath2)" font-family="sans-serif" stroke="none">(key=deskId, body=TerminalInfo)</text>
    </g>
    <g fill="rgb(204,255,255)" text-rendering="geometricPrecision" shape-rendering="geometricPrecision" transform="matrix(1,0,0,1,-133,-103)" stroke="rgb(204,255,255)">
      <path d="M465.2 118.5 L701 118.5 L674.8 181.5 L439 181.5 Z" fill-rule="evenodd" clip-path="url(#clipPath2)" stroke="none"/>
    </g>
    <g text-rendering="geometricPrecision" stroke-miterlimit="1.45" shape-rendering="geometricPrecision" transform="matrix(1,0,0,1,-133,-103)" stroke-linecap="butt">
      <path fill="none" d="M465.2 118.5 L701 118.5 L674.8 181.5 L439 181.5 Z" fill-rule="evenodd" clip-path="url(#clipPath2)"/>
      <text x="520.8867" xml:space="preserve" y="154.5352" clip-path="url(#clipPath2)" font-family="sans-serif" stroke="none">airport simulator</text>
    </g>
    <g fill="rgb(204,255,255)" text-rendering="geometricPrecision" shape-rendering="geometricPrecision" transform="matrix(1,0,0,1,-133,-103)" stroke="rgb(204,255,255)">
      <path d="M174.2 350.5 L410 350.5 L383.8 413.5 L148 413.5 Z" fill-rule="evenodd" clip-path="url(#clipPath2)" stroke="none"/>
    </g>
    <g text-rendering="geometricPrecision" stroke-miterlimit="1.45" shape-rendering="geometricPrecision" transform="matrix(1,0,0,1,-133,-103)" stroke-linecap="butt">
      <path fill="none" d="M174.2 350.5 L410 350.5 L383.8 413.5 L148 413.5 Z" fill-rule="evenodd" clip-path="url(#clipPath2)"/>
      <text x="171.8965" xml:space="preserve" y="386.5352" clip-path="url(#clipPath2)" font-family="sans-serif" stroke="none">consumer::checkinCancelled method</text>
    </g>
    <g fill="rgb(204,255,255)" text-rendering="geometricPrecision" shape-rendering="geometricPrecision" transform="matrix(1,0,0,1,-133,-103)" stroke="rgb(204,255,255)">
      <path d="M466.2 350.5 L702 350.5 L675.8 413.5 L440 413.5 Z" fill-rule="evenodd" clip-path="url(#clipPath2)" stroke="none"/>
    </g>
    <g text-rendering="geometricPrecision" stroke-miterlimit="1.45" shape-rendering="geometricPrecision" transform="matrix(1,0,0,1,-133,-103)" stroke-linecap="butt">
      <path fill="none" d="M466.2 350.5 L702 350.5 L675.8 413.5 L440 413.5 Z" fill-rule="evenodd" clip-path="url(#clipPath2)"/>
      <text x="460.4336" xml:space="preserve" y="386.5352" clip-path="url(#clipPath2)" font-family="sans-serif" stroke="none">consumer::checkinCompleted method</text>
    </g>
    <g fill="rgb(204,255,255)" text-rendering="geometricPrecision" shape-rendering="geometricPrecision" transform="matrix(1,0,0,1,-133,-103)" stroke="rgb(204,255,255)">
      <path d="M758.2 350.5 L994 350.5 L967.8 413.5 L732 413.5 Z" fill-rule="evenodd" clip-path="url(#clipPath2)" stroke="none"/>
    </g>
    <g text-rendering="geometricPrecision" stroke-miterlimit="1.45" shape-rendering="geometricPrecision" transform="matrix(1,0,0,1,-133,-103)" stroke-linecap="butt">
      <path fill="none" d="M758.2 350.5 L994 350.5 L967.8 413.5 L732 413.5 Z" fill-rule="evenodd" clip-path="url(#clipPath2)"/>
      <text x="763.4814" xml:space="preserve" y="386.5352" clip-path="url(#clipPath2)" font-family="sans-serif" stroke="none">consumer::checkinStarted method</text>
    </g>
    <g fill="rgb(255,255,153)" text-rendering="geometricPrecision" shape-rendering="geometricPrecision" transform="matrix(1,0,0,1,-133,-103)" stroke="rgb(255,255,153)">
      <rect x="455.5" y="488" clip-path="url(#clipPath2)" width="231" rx="4" ry="4" height="277" stroke="none"/>
    </g>
    <g text-rendering="geometricPrecision" stroke-miterlimit="1.45" shape-rendering="geometricPrecision" transform="matrix(1,0,0,1,-133,-103)" stroke-linecap="butt">
      <rect x="455.5" y="488" clip-path="url(#clipPath2)" fill="none" width="231" rx="4" ry="4" height="277"/>
    </g>
    <g stroke-linecap="butt" transform="matrix(1,0,0,1,-133,-103) translate(468,499)" fill="rgb(178,178,178)" text-rendering="geometricPrecision" font-family="sans-serif" shape-rendering="geometricPrecision" stroke="rgb(178,178,178)" stroke-miterlimit="1.45">
      <polygon points=" 0 0 -1 -1 206 -1 205 0" stroke="none" clip-path="url(#clipPath4)"/>
      <polygon fill="black" clip-path="url(#clipPath5)" transform="translate(205,0) rotate(90)" points=" 0 0 -1 -1 255 -1 254 0" stroke="none"/>
      <polygon fill="black" clip-path="url(#clipPath6)" transform="translate(205,254) rotate(180)" points=" 0 0 -1 -1 206 -1 205 0" stroke="none"/>
      <polygon clip-path="url(#clipPath7)" transform="translate(0,254) rotate(270)" points=" 0 0 -1 -1 255 -1 254 0" stroke="none"/>
    </g>
    <g text-rendering="geometricPrecision" stroke-miterlimit="1.45" shape-rendering="geometricPrecision" font-family="sans-serif" transform="matrix(1,0,0,1,-133,-103) translate(472,503)" stroke-linecap="butt">
      <polygon points=" 0 0 -1 -1 79 -1 78 0" stroke="none" clip-path="url(#clipPath8)"/>
      <polygon fill="rgb(178,178,178)" clip-path="url(#clipPath9)" transform="translate(78,0) rotate(90)" points=" 0 0 -1 -1 22 -1 21 0" stroke="none"/>
      <polygon fill="rgb(178,178,178)" clip-path="url(#clipPath10)" transform="translate(78,21) rotate(180)" points=" 0 0 -1 -1 79 -1 78 0" stroke="none"/>
      <polygon clip-path="url(#clipPath11)" transform="translate(0,21) rotate(270)" points=" 0 0 -1 -1 22 -1 21 0" stroke="none"/>
    </g>
    <g stroke-linecap="butt" transform="matrix(1,0,0,1,-133,-103) translate(467,498)" text-rendering="geometricPrecision" font-family="sans-serif" shape-rendering="geometricPrecision" font-weight="bold" stroke-miterlimit="1.45">
      <text x="8" xml:space="preserve" y="20" clip-path="url(#clipPath3)" stroke="none">partition_id</text>
    </g>
    <g stroke-linecap="butt" transform="matrix(1,0,0,1,-133,-103) translate(554,503)" text-rendering="geometricPrecision" font-family="sans-serif" shape-rendering="geometricPrecision" font-weight="bold" stroke-miterlimit="1.45">
      <polygon points=" 0 0 -1 -1 68 -1 67 0" stroke="none" clip-path="url(#clipPath12)"/>
      <polygon fill="rgb(178,178,178)" clip-path="url(#clipPath9)" transform="translate(67,0) rotate(90)" points=" 0 0 -1 -1 22 -1 21 0" stroke="none"/>
      <polygon fill="rgb(178,178,178)" clip-path="url(#clipPath13)" transform="translate(67,21) rotate(180)" points=" 0 0 -1 -1 68 -1 67 0" stroke="none"/>
      <polygon clip-path="url(#clipPath11)" transform="translate(0,21) rotate(270)" points=" 0 0 -1 -1 22 -1 21 0" stroke="none"/>
    </g>
    <g stroke-linecap="butt" transform="matrix(1,0,0,1,-133,-103) translate(467,498)" text-rendering="geometricPrecision" font-family="sans-serif" shape-rendering="geometricPrecision" font-weight="bold" stroke-miterlimit="1.45">
      <text x="103" xml:space="preserve" y="20" clip-path="url(#clipPath3)" stroke="none">name</text>
    </g>
    <g stroke-linecap="butt" transform="matrix(1,0,0,1,-133,-103) translate(625,503)" text-rendering="geometricPrecision" font-family="sans-serif" shape-rendering="geometricPrecision" font-weight="bold" stroke-miterlimit="1.45">
      <polygon points=" 0 0 -1 -1 45 -1 44 0" stroke="none" clip-path="url(#clipPath14)"/>
      <polygon fill="rgb(178,178,178)" clip-path="url(#clipPath9)" transform="translate(44,0) rotate(90)" points=" 0 0 -1 -1 22 -1 21 0" stroke="none"/>
      <polygon fill="rgb(178,178,178)" clip-path="url(#clipPath15)" transform="translate(44,21) rotate(180)" points=" 0 0 -1 -1 45 -1 44 0" stroke="none"/>
      <polygon clip-path="url(#clipPath11)" transform="translate(0,21) rotate(270)" points=" 0 0 -1 -1 22 -1 21 0" stroke="none"/>
    </g>
    <g stroke-linecap="butt" transform="matrix(1,0,0,1,-133,-103) translate(467,498)" text-rendering="geometricPrecision" font-family="sans-serif" shape-rendering="geometricPrecision" font-weight="bold" stroke-miterlimit="1.45">
      <text x="163" xml:space="preserve" y="20" clip-path="url(#clipPath3)" stroke="none">value</text>
    </g>
    <g stroke-linecap="butt" transform="matrix(1,0,0,1,-133,-103) translate(472,528)" text-rendering="geometricPrecision" font-family="sans-serif" shape-rendering="geometricPrecision" font-weight="bold" stroke-miterlimit="1.45">
      <polygon points=" 0 0 -1 -1 79 -1 78 0" stroke="none" clip-path="url(#clipPath8)"/>
      <polygon fill="rgb(178,178,178)" clip-path="url(#clipPath9)" transform="translate(78,0) rotate(90)" points=" 0 0 -1 -1 22 -1 21 0" stroke="none"/>
      <polygon fill="rgb(178,178,178)" clip-path="url(#clipPath10)" transform="translate(78,21) rotate(180)" points=" 0 0 -1 -1 79 -1 78 0" stroke="none"/>
      <polygon clip-path="url(#clipPath11)" transform="translate(0,21) rotate(270)" points=" 0 0 -1 -1 22 -1 21 0" stroke="none"/>
    </g>
    <g text-rendering="geometricPrecision" stroke-miterlimit="1.45" shape-rendering="geometricPrecision" font-family="sans-serif" transform="matrix(1,0,0,1,-133,-103) translate(467,498)" stroke-linecap="butt">
      <text x="8" xml:space="preserve" y="45" clip-path="url(#clipPath3)" stroke="none">0</text>
    </g>
    <g text-rendering="geometricPrecision" stroke-miterlimit="1.45" shape-rendering="geometricPrecision" font-family="sans-serif" transform="matrix(1,0,0,1,-133,-103) translate(554,528)" stroke-linecap="butt">
      <polygon points=" 0 0 -1 -1 68 -1 67 0" stroke="none" clip-path="url(#clipPath12)"/>
      <polygon fill="rgb(178,178,178)" clip-path="url(#clipPath9)" transform="translate(67,0) rotate(90)" points=" 0 0 -1 -1 22 -1 21 0" stroke="none"/>
      <polygon fill="rgb(178,178,178)" clip-path="url(#clipPath13)" transform="translate(67,21) rotate(180)" points=" 0 0 -1 -1 68 -1 67 0" stroke="none"/>
      <polygon clip-path="url(#clipPath11)" transform="translate(0,21) rotate(270)" points=" 0 0 -1 -1 22 -1 21 0" stroke="none"/>
    </g>
    <g text-rendering="geometricPrecision" stroke-miterlimit="1.45" shape-rendering="geometricPrecision" font-family="sans-serif" transform="matrix(1,0,0,1,-133,-103) translate(467,498)" stroke-linecap="butt">
      <text x="90" xml:space="preserve" y="45" clip-path="url(#clipPath3)" stroke="none">started</text>
    </g>
    <g text-rendering="geometricPrecision" stroke-miterlimit="1.45" shape-rendering="geometricPrecision" font-family="sans-serif" transform="matrix(1,0,0,1,-133,-103) translate(625,528)" stroke-linecap="butt">
      <polygon points=" 0 0 -1 -1 45 -1 44 0" stroke="none" clip-path="url(#clipPath14)"/>
      <polygon fill="rgb(178,178,178)" clip-path="url(#clipPath9)" transform="translate(44,0) rotate(90)" points=" 0 0 -1 -1 22 -1 21 0" stroke="none"/>
      <polygon fill="rgb(178,178,178)" clip-path="url(#clipPath15)" transform="translate(44,21) rotate(180)" points=" 0 0 -1 -1 45 -1 44 0" stroke="none"/>
      <polygon clip-path="url(#clipPath11)" transform="translate(0,21) rotate(270)" points=" 0 0 -1 -1 22 -1 21 0" stroke="none"/>
    </g>
    <g text-rendering="geometricPrecision" stroke-miterlimit="1.45" shape-rendering="geometricPrecision" font-family="sans-serif" transform="matrix(1,0,0,1,-133,-103) translate(467,498)" stroke-linecap="butt">
      <text x="161" xml:space="preserve" y="45" clip-path="url(#clipPath3)" stroke="none">(value)</text>
    </g>
    <g text-rendering="geometricPrecision" stroke-miterlimit="1.45" shape-rendering="geometricPrecision" font-family="sans-serif" transform="matrix(1,0,0,1,-133,-103) translate(472,553)" stroke-linecap="butt">
      <polygon points=" 0 0 -1 -1 79 -1 78 0" stroke="none" clip-path="url(#clipPath8)"/>
      <polygon fill="rgb(178,178,178)" clip-path="url(#clipPath9)" transform="translate(78,0) rotate(90)" points=" 0 0 -1 -1 22 -1 21 0" stroke="none"/>
      <polygon fill="rgb(178,178,178)" clip-path="url(#clipPath10)" transform="translate(78,21) rotate(180)" points=" 0 0 -1 -1 79 -1 78 0" stroke="none"/>
      <polygon clip-path="url(#clipPath11)" transform="translate(0,21) rotate(270)" points=" 0 0 -1 -1 22 -1 21 0" stroke="none"/>
    </g>
    <g text-rendering="geometricPrecision" stroke-miterlimit="1.45" shape-rendering="geometricPrecision" font-family="sans-serif" transform="matrix(1,0,0,1,-133,-103) translate(467,498)" stroke-linecap="butt">
      <text x="8" xml:space="preserve" y="70" clip-path="url(#clipPath3)" stroke="none">0</text>
    </g>
    <g text-rendering="geometricPrecision" stroke-miterlimit="1.45" shape-rendering="geometricPrecision" font-family="sans-serif" transform="matrix(1,0,0,1,-133,-103) translate(554,553)" stroke-linecap="butt">
      <polygon points=" 0 0 -1 -1 68 -1 67 0" stroke="none" clip-path="url(#clipPath12)"/>
      <polygon fill="rgb(178,178,178)" clip-path="url(#clipPath9)" transform="translate(67,0) rotate(90)" points=" 0 0 -1 -1 22 -1 21 0" stroke="none"/>
      <polygon fill="rgb(178,178,178)" clip-path="url(#clipPath13)" transform="translate(67,21) rotate(180)" points=" 0 0 -1 -1 68 -1 67 0" stroke="none"/>
      <polygon clip-path="url(#clipPath11)" transform="translate(0,21) rotate(270)" points=" 0 0 -1 -1 22 -1 21 0" stroke="none"/>
    </g>
    <g text-rendering="geometricPrecision" stroke-miterlimit="1.45" shape-rendering="geometricPrecision" font-family="sans-serif" transform="matrix(1,0,0,1,-133,-103) translate(467,498)" stroke-linecap="butt">
      <text x="90" xml:space="preserve" y="70" clip-path="url(#clipPath3)" stroke="none">cancelled</text>
    </g>
    <g text-rendering="geometricPrecision" stroke-miterlimit="1.45" shape-rendering="geometricPrecision" font-family="sans-serif" transform="matrix(1,0,0,1,-133,-103) translate(625,553)" stroke-linecap="butt">
      <polygon points=" 0 0 -1 -1 45 -1 44 0" stroke="none" clip-path="url(#clipPath14)"/>
      <polygon fill="rgb(178,178,178)" clip-path="url(#clipPath9)" transform="translate(44,0) rotate(90)" points=" 0 0 -1 -1 22 -1 21 0" stroke="none"/>
      <polygon fill="rgb(178,178,178)" clip-path="url(#clipPath15)" transform="translate(44,21) rotate(180)" points=" 0 0 -1 -1 45 -1 44 0" stroke="none"/>
      <polygon clip-path="url(#clipPath11)" transform="translate(0,21) rotate(270)" points=" 0 0 -1 -1 22 -1 21 0" stroke="none"/>
    </g>
    <g text-rendering="geometricPrecision" stroke-miterlimit="1.45" shape-rendering="geometricPrecision" font-family="sans-serif" transform="matrix(1,0,0,1,-133,-103) translate(467,498)" stroke-linecap="butt">
      <text x="161" xml:space="preserve" y="70" clip-path="url(#clipPath3)" stroke="none">(value)</text>
    </g>
    <g text-rendering="geometricPrecision" stroke-miterlimit="1.45" shape-rendering="geometricPrecision" font-family="sans-serif" transform="matrix(1,0,0,1,-133,-103) translate(472,578)" stroke-linecap="butt">
      <polygon points=" 0 0 -1 -1 79 -1 78 0" stroke="none" clip-path="url(#clipPath8)"/>
      <polygon fill="rgb(178,178,178)" clip-path="url(#clipPath9)" transform="translate(78,0) rotate(90)" points=" 0 0 -1 -1 22 -1 21 0" stroke="none"/>
      <polygon fill="rgb(178,178,178)" clip-path="url(#clipPath10)" transform="translate(78,21) rotate(180)" points=" 0 0 -1 -1 79 -1 78 0" stroke="none"/>
      <polygon clip-path="url(#clipPath11)" transform="translate(0,21) rotate(270)" points=" 0 0 -1 -1 22 -1 21 0" stroke="none"/>
    </g>
    <g text-rendering="geometricPrecision" stroke-miterlimit="1.45" shape-rendering="geometricPrecision" font-family="sans-serif" transform="matrix(1,0,0,1,-133,-103) translate(467,498)" stroke-linecap="butt">
      <text x="8" xml:space="preserve" y="95" clip-path="url(#clipPath3)" stroke="none">0</text>
    </g>
    <g text-rendering="geometricPrecision" stroke-miterlimit="1.45" shape-rendering="geometricPrecision" font-family="sans-serif" transform="matrix(1,0,0,1,-133,-103) translate(554,578)" stroke-linecap="butt">
      <polygon points=" 0 0 -1 -1 68 -1 67 0" stroke="none" clip-path="url(#clipPath12)"/>
      <polygon fill="rgb(178,178,178)" clip-path="url(#clipPath9)" transform="translate(67,0) rotate(90)" points=" 0 0 -1 -1 22 -1 21 0" stroke="none"/>
      <polygon fill="rgb(178,178,178)" clip-path="url(#clipPath13)" transform="translate(67,21) rotate(180)" points=" 0 0 -1 -1 68 -1 67 0" stroke="none"/>
      <polygon clip-path="url(#clipPath11)" transform="translate(0,21) rotate(270)" points=" 0 0 -1 -1 22 -1 21 0" stroke="none"/>
    </g>
    <g text-rendering="geometricPrecision" stroke-miterlimit="1.45" shape-rendering="geometricPrecision" font-family="sans-serif" transform="matrix(1,0,0,1,-133,-103) translate(467,498)" stroke-linecap="butt">
      <text x="90" xml:space="preserve" y="95" clip-path="url(#clipPath3)" stroke="none">completed</text>
    </g>
    <g text-rendering="geometricPrecision" stroke-miterlimit="1.45" shape-rendering="geometricPrecision" font-family="sans-serif" transform="matrix(1,0,0,1,-133,-103) translate(625,578)" stroke-linecap="butt">
      <polygon points=" 0 0 -1 -1 45 -1 44 0" stroke="none" clip-path="url(#clipPath14)"/>
      <polygon fill="rgb(178,178,178)" clip-path="url(#clipPath9)" transform="translate(44,0) rotate(90)" points=" 0 0 -1 -1 22 -1 21 0" stroke="none"/>
      <polygon fill="rgb(178,178,178)" clip-path="url(#clipPath15)" transform="translate(44,21) rotate(180)" points=" 0 0 -1 -1 45 -1 44 0" stroke="none"/>
      <polygon clip-path="url(#clipPath11)" transform="translate(0,21) rotate(270)" points=" 0 0 -1 -1 22 -1 21 0" stroke="none"/>
    </g>
    <g text-rendering="geometricPrecision" stroke-miterlimit="1.45" shape-rendering="geometricPrecision" font-family="sans-serif" transform="matrix(1,0,0,1,-133,-103) translate(467,498)" stroke-linecap="butt">
      <text x="161" xml:space="preserve" y="95" clip-path="url(#clipPath3)" stroke="none">(value)</text>
    </g>
    <g text-rendering="geometricPrecision" stroke-miterlimit="1.45" shape-rendering="geometricPrecision" font-family="sans-serif" transform="matrix(1,0,0,1,-133,-103) translate(472,603)" stroke-linecap="butt">
      <polygon points=" 0 0 -1 -1 79 -1 78 0" stroke="none" clip-path="url(#clipPath8)"/>
      <polygon fill="rgb(178,178,178)" clip-path="url(#clipPath9)" transform="translate(78,0) rotate(90)" points=" 0 0 -1 -1 22 -1 21 0" stroke="none"/>
      <polygon fill="rgb(178,178,178)" clip-path="url(#clipPath10)" transform="translate(78,21) rotate(180)" points=" 0 0 -1 -1 79 -1 78 0" stroke="none"/>
      <polygon clip-path="url(#clipPath11)" transform="translate(0,21) rotate(270)" points=" 0 0 -1 -1 22 -1 21 0" stroke="none"/>
    </g>
    <g text-rendering="geometricPrecision" stroke-miterlimit="1.45" shape-rendering="geometricPrecision" font-family="sans-serif" transform="matrix(1,0,0,1,-133,-103) translate(467,498)" stroke-linecap="butt">
      <text x="8" xml:space="preserve" y="120" clip-path="url(#clipPath3)" stroke="none">1</text>
    </g>
    <g text-rendering="geometricPrecision" stroke-miterlimit="1.45" shape-rendering="geometricPrecision" font-family="sans-serif" transform="matrix(1,0,0,1,-133,-103) translate(554,603)" stroke-linecap="butt">
      <polygon points=" 0 0 -1 -1 68 -1 67 0" stroke="none" clip-path="url(#clipPath12)"/>
      <polygon fill="rgb(178,178,178)" clip-path="url(#clipPath9)" transform="translate(67,0) rotate(90)" points=" 0 0 -1 -1 22 -1 21 0" stroke="none"/>
      <polygon fill="rgb(178,178,178)" clip-path="url(#clipPath13)" transform="translate(67,21) rotate(180)" points=" 0 0 -1 -1 68 -1 67 0" stroke="none"/>
      <polygon clip-path="url(#clipPath11)" transform="translate(0,21) rotate(270)" points=" 0 0 -1 -1 22 -1 21 0" stroke="none"/>
    </g>
    <g text-rendering="geometricPrecision" stroke-miterlimit="1.45" shape-rendering="geometricPrecision" font-family="sans-serif" transform="matrix(1,0,0,1,-133,-103) translate(467,498)" stroke-linecap="butt">
      <text x="90" xml:space="preserve" y="120" clip-path="url(#clipPath3)" stroke="none">started</text>
    </g>
    <g text-rendering="geometricPrecision" stroke-miterlimit="1.45" shape-rendering="geometricPrecision" font-family="sans-serif" transform="matrix(1,0,0,1,-133,-103) translate(625,603)" stroke-linecap="butt">
      <polygon points=" 0 0 -1 -1 45 -1 44 0" stroke="none" clip-path="url(#clipPath14)"/>
      <polygon fill="rgb(178,178,178)" clip-path="url(#clipPath9)" transform="translate(44,0) rotate(90)" points=" 0 0 -1 -1 22 -1 21 0" stroke="none"/>
      <polygon fill="rgb(178,178,178)" clip-path="url(#clipPath15)" transform="translate(44,21) rotate(180)" points=" 0 0 -1 -1 45 -1 44 0" stroke="none"/>
      <polygon clip-path="url(#clipPath11)" transform="translate(0,21) rotate(270)" points=" 0 0 -1 -1 22 -1 21 0" stroke="none"/>
    </g>
    <g text-rendering="geometricPrecision" stroke-miterlimit="1.45" shape-rendering="geometricPrecision" font-family="sans-serif" transform="matrix(1,0,0,1,-133,-103) translate(467,498)" stroke-linecap="butt">
      <text x="161" xml:space="preserve" y="120" clip-path="url(#clipPath3)" stroke="none">(value)</text>
    </g>
    <g text-rendering="geometricPrecision" stroke-miterlimit="1.45" shape-rendering="geometricPrecision" font-family="sans-serif" transform="matrix(1,0,0,1,-133,-103) translate(472,628)" stroke-linecap="butt">
      <polygon points=" 0 0 -1 -1 79 -1 78 0" stroke="none" clip-path="url(#clipPath8)"/>
      <polygon fill="rgb(178,178,178)" clip-path="url(#clipPath9)" transform="translate(78,0) rotate(90)" points=" 0 0 -1 -1 22 -1 21 0" stroke="none"/>
      <polygon fill="rgb(178,178,178)" clip-path="url(#clipPath10)" transform="translate(78,21) rotate(180)" points=" 0 0 -1 -1 79 -1 78 0" stroke="none"/>
      <polygon clip-path="url(#clipPath11)" transform="translate(0,21) rotate(270)" points=" 0 0 -1 -1 22 -1 21 0" stroke="none"/>
    </g>
    <g text-rendering="geometricPrecision" stroke-miterlimit="1.45" shape-rendering="geometricPrecision" font-family="sans-serif" transform="matrix(1,0,0,1,-133,-103) translate(467,498)" stroke-linecap="butt">
      <text x="8" xml:space="preserve" y="145" clip-path="url(#clipPath3)" stroke="none">1</text>
    </g>
    <g text-rendering="geometricPrecision" stroke-miterlimit="1.45" shape-rendering="geometricPrecision" font-family="sans-serif" transform="matrix(1,0,0,1,-133,-103) translate(554,628)" stroke-linecap="butt">
      <polygon points=" 0 0 -1 -1 68 -1 67 0" stroke="none" clip-path="url(#clipPath12)"/>
      <polygon fill="rgb(178,178,178)" clip-path="url(#clipPath9)" transform="translate(67,0) rotate(90)" points=" 0 0 -1 -1 22 -1 21 0" stroke="none"/>
      <polygon fill="rgb(178,178,178)" clip-path="url(#clipPath13)" transform="translate(67,21) rotate(180)" points=" 0 0 -1 -1 68 -1 67 0" stroke="none"/>
      <polygon clip-path="url(#clipPath11)" transform="translate(0,21) rotate(270)" points=" 0 0 -1 -1 22 -1 21 0" stroke="none"/>
    </g>
    <g text-rendering="geometricPrecision" stroke-miterlimit="1.45" shape-rendering="geometricPrecision" font-family="sans-serif" transform="matrix(1,0,0,1,-133,-103) translate(467,498)" stroke-linecap="butt">
      <text x="90" xml:space="preserve" y="145" clip-path="url(#clipPath3)" stroke="none">cancelled</text>
    </g>
    <g text-rendering="geometricPrecision" stroke-miterlimit="1.45" shape-rendering="geometricPrecision" font-family="sans-serif" transform="matrix(1,0,0,1,-133,-103) translate(625,628)" stroke-linecap="butt">
      <polygon points=" 0 0 -1 -1 45 -1 44 0" stroke="none" clip-path="url(#clipPath14)"/>
      <polygon fill="rgb(178,178,178)" clip-path="url(#clipPath9)" transform="translate(44,0) rotate(90)" points=" 0 0 -1 -1 22 -1 21 0" stroke="none"/>
      <polygon fill="rgb(178,178,178)" clip-path="url(#clipPath15)" transform="translate(44,21) rotate(180)" points=" 0 0 -1 -1 45 -1 44 0" stroke="none"/>
      <polygon clip-path="url(#clipPath11)" transform="translate(0,21) rotate(270)" points=" 0 0 -1 -1 22 -1 21 0" stroke="none"/>
    </g>
    <g text-rendering="geometricPrecision" stroke-miterlimit="1.45" shape-rendering="geometricPrecision" font-family="sans-serif" transform="matrix(1,0,0,1,-133,-103) translate(467,498)" stroke-linecap="butt">
      <text x="161" xml:space="preserve" y="145" clip-path="url(#clipPath3)" stroke="none">(value)</text>
    </g>
    <g text-rendering="geometricPrecision" stroke-miterlimit="1.45" shape-rendering="geometricPrecision" font-family="sans-serif" transform="matrix(1,0,0,1,-133,-103) translate(472,653)" stroke-linecap="butt">
      <polygon points=" 0 0 -1 -1 79 -1 78 0" stroke="none" clip-path="url(#clipPath8)"/>
      <polygon fill="rgb(178,178,178)" clip-path="url(#clipPath9)" transform="translate(78,0) rotate(90)" points=" 0 0 -1 -1 22 -1 21 0" stroke="none"/>
      <polygon fill="rgb(178,178,178)" clip-path="url(#clipPath10)" transform="translate(78,21) rotate(180)" points=" 0 0 -1 -1 79 -1 78 0" stroke="none"/>
      <polygon clip-path="url(#clipPath11)" transform="translate(0,21) rotate(270)" points=" 0 0 -1 -1 22 -1 21 0" stroke="none"/>
    </g>
    <g text-rendering="geometricPrecision" stroke-miterlimit="1.45" shape-rendering="geometricPrecision" font-family="sans-serif" transform="matrix(1,0,0,1,-133,-103) translate(467,498)" stroke-linecap="butt">
      <text x="8" xml:space="preserve" y="170" clip-path="url(#clipPath3)" stroke="none">1</text>
    </g>
    <g text-rendering="geometricPrecision" stroke-miterlimit="1.45" shape-rendering="geometricPrecision" font-family="sans-serif" transform="matrix(1,0,0,1,-133,-103) translate(554,653)" stroke-linecap="butt">
      <polygon points=" 0 0 -1 -1 68 -1 67 0" stroke="none" clip-path="url(#clipPath12)"/>
      <polygon fill="rgb(178,178,178)" clip-path="url(#clipPath9)" transform="translate(67,0) rotate(90)" points=" 0 0 -1 -1 22 -1 21 0" stroke="none"/>
      <polygon fill="rgb(178,178,178)" clip-path="url(#clipPath13)" transform="translate(67,21) rotate(180)" points=" 0 0 -1 -1 68 -1 67 0" stroke="none"/>
      <polygon clip-path="url(#clipPath11)" transform="translate(0,21) rotate(270)" points=" 0 0 -1 -1 22 -1 21 0" stroke="none"/>
    </g>
    <g text-rendering="geometricPrecision" stroke-miterlimit="1.45" shape-rendering="geometricPrecision" font-family="sans-serif" transform="matrix(1,0,0,1,-133,-103) translate(467,498)" stroke-linecap="butt">
      <text x="90" xml:space="preserve" y="170" clip-path="url(#clipPath3)" stroke="none">completed</text>
    </g>
    <g text-rendering="geometricPrecision" stroke-miterlimit="1.45" shape-rendering="geometricPrecision" font-family="sans-serif" transform="matrix(1,0,0,1,-133,-103) translate(625,653)" stroke-linecap="butt">
      <polygon points=" 0 0 -1 -1 45 -1 44 0" stroke="none" clip-path="url(#clipPath14)"/>
      <polygon fill="rgb(178,178,178)" clip-path="url(#clipPath9)" transform="translate(44,0) rotate(90)" points=" 0 0 -1 -1 22 -1 21 0" stroke="none"/>
      <polygon fill="rgb(178,178,178)" clip-path="url(#clipPath15)" transform="translate(44,21) rotate(180)" points=" 0 0 -1 -1 45 -1 44 0" stroke="none"/>
      <polygon clip-path="url(#clipPath11)" transform="translate(0,21) rotate(270)" points=" 0 0 -1 -1 22 -1 21 0" stroke="none"/>
    </g>
    <g text-rendering="geometricPrecision" stroke-miterlimit="1.45" shape-rendering="geometricPrecision" font-family="sans-serif" transform="matrix(1,0,0,1,-133,-103) translate(467,498)" stroke-linecap="butt">
      <text x="161" xml:space="preserve" y="170" clip-path="url(#clipPath3)" stroke="none">(value)</text>
    </g>
    <g text-rendering="geometricPrecision" stroke-miterlimit="1.45" shape-rendering="geometricPrecision" font-family="sans-serif" transform="matrix(1,0,0,1,-133,-103) translate(472,678)" stroke-linecap="butt">
      <polygon points=" 0 0 -1 -1 79 -1 78 0" stroke="none" clip-path="url(#clipPath8)"/>
      <polygon fill="rgb(178,178,178)" clip-path="url(#clipPath9)" transform="translate(78,0) rotate(90)" points=" 0 0 -1 -1 22 -1 21 0" stroke="none"/>
      <polygon fill="rgb(178,178,178)" clip-path="url(#clipPath10)" transform="translate(78,21) rotate(180)" points=" 0 0 -1 -1 79 -1 78 0" stroke="none"/>
      <polygon clip-path="url(#clipPath11)" transform="translate(0,21) rotate(270)" points=" 0 0 -1 -1 22 -1 21 0" stroke="none"/>
    </g>
    <g text-rendering="geometricPrecision" stroke-miterlimit="1.45" shape-rendering="geometricPrecision" font-family="sans-serif" transform="matrix(1,0,0,1,-133,-103) translate(467,498)" stroke-linecap="butt">
      <text x="8" xml:space="preserve" y="195" clip-path="url(#clipPath3)" stroke="none">2</text>
    </g>
    <g text-rendering="geometricPrecision" stroke-miterlimit="1.45" shape-rendering="geometricPrecision" font-family="sans-serif" transform="matrix(1,0,0,1,-133,-103) translate(554,678)" stroke-linecap="butt">
      <polygon points=" 0 0 -1 -1 68 -1 67 0" stroke="none" clip-path="url(#clipPath12)"/>
      <polygon fill="rgb(178,178,178)" clip-path="url(#clipPath9)" transform="translate(67,0) rotate(90)" points=" 0 0 -1 -1 22 -1 21 0" stroke="none"/>
      <polygon fill="rgb(178,178,178)" clip-path="url(#clipPath13)" transform="translate(67,21) rotate(180)" points=" 0 0 -1 -1 68 -1 67 0" stroke="none"/>
      <polygon clip-path="url(#clipPath11)" transform="translate(0,21) rotate(270)" points=" 0 0 -1 -1 22 -1 21 0" stroke="none"/>
    </g>
    <g text-rendering="geometricPrecision" stroke-miterlimit="1.45" shape-rendering="geometricPrecision" font-family="sans-serif" transform="matrix(1,0,0,1,-133,-103) translate(467,498)" stroke-linecap="butt">
      <text x="90" xml:space="preserve" y="195" clip-path="url(#clipPath3)" stroke="none">started</text>
    </g>
    <g text-rendering="geometricPrecision" stroke-miterlimit="1.45" shape-rendering="geometricPrecision" font-family="sans-serif" transform="matrix(1,0,0,1,-133,-103) translate(625,678)" stroke-linecap="butt">
      <polygon points=" 0 0 -1 -1 45 -1 44 0" stroke="none" clip-path="url(#clipPath14)"/>
      <polygon fill="rgb(178,178,178)" clip-path="url(#clipPath9)" transform="translate(44,0) rotate(90)" points=" 0 0 -1 -1 22 -1 21 0" stroke="none"/>
      <polygon fill="rgb(178,178,178)" clip-path="url(#clipPath15)" transform="translate(44,21) rotate(180)" points=" 0 0 -1 -1 45 -1 44 0" stroke="none"/>
      <polygon clip-path="url(#clipPath11)" transform="translate(0,21) rotate(270)" points=" 0 0 -1 -1 22 -1 21 0" stroke="none"/>
    </g>
    <g text-rendering="geometricPrecision" stroke-miterlimit="1.45" shape-rendering="geometricPrecision" font-family="sans-serif" transform="matrix(1,0,0,1,-133,-103) translate(467,498)" stroke-linecap="butt">
      <text x="161" xml:space="preserve" y="195" clip-path="url(#clipPath3)" stroke="none">(value)</text>
    </g>
    <g text-rendering="geometricPrecision" stroke-miterlimit="1.45" shape-rendering="geometricPrecision" font-family="sans-serif" transform="matrix(1,0,0,1,-133,-103) translate(472,703)" stroke-linecap="butt">
      <polygon points=" 0 0 -1 -1 79 -1 78 0" stroke="none" clip-path="url(#clipPath8)"/>
      <polygon fill="rgb(178,178,178)" clip-path="url(#clipPath9)" transform="translate(78,0) rotate(90)" points=" 0 0 -1 -1 22 -1 21 0" stroke="none"/>
      <polygon fill="rgb(178,178,178)" clip-path="url(#clipPath10)" transform="translate(78,21) rotate(180)" points=" 0 0 -1 -1 79 -1 78 0" stroke="none"/>
      <polygon clip-path="url(#clipPath11)" transform="translate(0,21) rotate(270)" points=" 0 0 -1 -1 22 -1 21 0" stroke="none"/>
    </g>
    <g text-rendering="geometricPrecision" stroke-miterlimit="1.45" shape-rendering="geometricPrecision" font-family="sans-serif" transform="matrix(1,0,0,1,-133,-103) translate(467,498)" stroke-linecap="butt">
      <text x="8" xml:space="preserve" y="220" clip-path="url(#clipPath3)" stroke="none">2</text>
    </g>
    <g text-rendering="geometricPrecision" stroke-miterlimit="1.45" shape-rendering="geometricPrecision" font-family="sans-serif" transform="matrix(1,0,0,1,-133,-103) translate(554,703)" stroke-linecap="butt">
      <polygon points=" 0 0 -1 -1 68 -1 67 0" stroke="none" clip-path="url(#clipPath12)"/>
      <polygon fill="rgb(178,178,178)" clip-path="url(#clipPath9)" transform="translate(67,0) rotate(90)" points=" 0 0 -1 -1 22 -1 21 0" stroke="none"/>
      <polygon fill="rgb(178,178,178)" clip-path="url(#clipPath13)" transform="translate(67,21) rotate(180)" points=" 0 0 -1 -1 68 -1 67 0" stroke="none"/>
      <polygon clip-path="url(#clipPath11)" transform="translate(0,21) rotate(270)" points=" 0 0 -1 -1 22 -1 21 0" stroke="none"/>
    </g>
    <g text-rendering="geometricPrecision" stroke-miterlimit="1.45" shape-rendering="geometricPrecision" font-family="sans-serif" transform="matrix(1,0,0,1,-133,-103) translate(467,498)" stroke-linecap="butt">
      <text x="90" xml:space="preserve" y="220" clip-path="url(#clipPath3)" stroke="none">cancelled</text>
    </g>
    <g text-rendering="geometricPrecision" stroke-miterlimit="1.45" shape-rendering="geometricPrecision" font-family="sans-serif" transform="matrix(1,0,0,1,-133,-103) translate(625,703)" stroke-linecap="butt">
      <polygon points=" 0 0 -1 -1 45 -1 44 0" stroke="none" clip-path="url(#clipPath14)"/>
      <polygon fill="rgb(178,178,178)" clip-path="url(#clipPath9)" transform="translate(44,0) rotate(90)" points=" 0 0 -1 -1 22 -1 21 0" stroke="none"/>
      <polygon fill="rgb(178,178,178)" clip-path="url(#clipPath15)" transform="translate(44,21) rotate(180)" points=" 0 0 -1 -1 45 -1 44 0" stroke="none"/>
      <polygon clip-path="url(#clipPath11)" transform="translate(0,21) rotate(270)" points=" 0 0 -1 -1 22 -1 21 0" stroke="none"/>
    </g>
    <g text-rendering="geometricPrecision" stroke-miterlimit="1.45" shape-rendering="geometricPrecision" font-family="sans-serif" transform="matrix(1,0,0,1,-133,-103) translate(467,498)" stroke-linecap="butt">
      <text x="161" xml:space="preserve" y="220" clip-path="url(#clipPath3)" stroke="none">(value)</text>
    </g>
    <g text-rendering="geometricPrecision" stroke-miterlimit="1.45" shape-rendering="geometricPrecision" font-family="sans-serif" transform="matrix(1,0,0,1,-133,-103) translate(472,728)" stroke-linecap="butt">
      <polygon points=" 0 0 -1 -1 79 -1 78 0" stroke="none" clip-path="url(#clipPath8)"/>
      <polygon fill="rgb(178,178,178)" clip-path="url(#clipPath9)" transform="translate(78,0) rotate(90)" points=" 0 0 -1 -1 22 -1 21 0" stroke="none"/>
      <polygon fill="rgb(178,178,178)" clip-path="url(#clipPath10)" transform="translate(78,21) rotate(180)" points=" 0 0 -1 -1 79 -1 78 0" stroke="none"/>
      <polygon clip-path="url(#clipPath11)" transform="translate(0,21) rotate(270)" points=" 0 0 -1 -1 22 -1 21 0" stroke="none"/>
    </g>
    <g text-rendering="geometricPrecision" stroke-miterlimit="1.45" shape-rendering="geometricPrecision" font-family="sans-serif" transform="matrix(1,0,0,1,-133,-103) translate(467,498)" stroke-linecap="butt">
      <text x="8" xml:space="preserve" y="245" clip-path="url(#clipPath3)" stroke="none">2</text>
    </g>
    <g text-rendering="geometricPrecision" stroke-miterlimit="1.45" shape-rendering="geometricPrecision" font-family="sans-serif" transform="matrix(1,0,0,1,-133,-103) translate(554,728)" stroke-linecap="butt">
      <polygon points=" 0 0 -1 -1 68 -1 67 0" stroke="none" clip-path="url(#clipPath12)"/>
      <polygon fill="rgb(178,178,178)" clip-path="url(#clipPath9)" transform="translate(67,0) rotate(90)" points=" 0 0 -1 -1 22 -1 21 0" stroke="none"/>
      <polygon fill="rgb(178,178,178)" clip-path="url(#clipPath13)" transform="translate(67,21) rotate(180)" points=" 0 0 -1 -1 68 -1 67 0" stroke="none"/>
      <polygon clip-path="url(#clipPath11)" transform="translate(0,21) rotate(270)" points=" 0 0 -1 -1 22 -1 21 0" stroke="none"/>
    </g>
    <g text-rendering="geometricPrecision" stroke-miterlimit="1.45" shape-rendering="geometricPrecision" font-family="sans-serif" transform="matrix(1,0,0,1,-133,-103) translate(467,498)" stroke-linecap="butt">
      <text x="90" xml:space="preserve" y="245" clip-path="url(#clipPath3)" stroke="none">completed</text>
    </g>
    <g text-rendering="geometricPrecision" stroke-miterlimit="1.45" shape-rendering="geometricPrecision" font-family="sans-serif" transform="matrix(1,0,0,1,-133,-103) translate(625,728)" stroke-linecap="butt">
      <polygon points=" 0 0 -1 -1 45 -1 44 0" stroke="none" clip-path="url(#clipPath14)"/>
      <polygon fill="rgb(178,178,178)" clip-path="url(#clipPath9)" transform="translate(44,0) rotate(90)" points=" 0 0 -1 -1 22 -1 21 0" stroke="none"/>
      <polygon fill="rgb(178,178,178)" clip-path="url(#clipPath15)" transform="translate(44,21) rotate(180)" points=" 0 0 -1 -1 45 -1 44 0" stroke="none"/>
      <polygon clip-path="url(#clipPath11)" transform="translate(0,21) rotate(270)" points=" 0 0 -1 -1 22 -1 21 0" stroke="none"/>
    </g>
    <g text-rendering="geometricPrecision" stroke-miterlimit="1.45" shape-rendering="geometricPrecision" font-family="sans-serif" transform="matrix(1,0,0,1,-133,-103) translate(467,498)" stroke-linecap="butt">
      <text x="161" xml:space="preserve" y="245" clip-path="url(#clipPath3)" stroke="none">(value)</text>
    </g>
    <g fill="rgb(255,204,0)" text-rendering="geometricPrecision" shape-rendering="geometricPrecision" transform="matrix(1,0,0,1,-133,-103)" stroke="rgb(255,204,0)">
      <path d="M747 602.5 L921 602.5 L921 617.5 L936 617.5 L936 650.5 L747 650.5 Z" stroke="none" clip-path="url(#clipPath2)"/>
      <path fill="white" d="M921 602.5 L921 617.5 L936 617.5 Z" clip-path="url(#clipPath2)" fill-rule="evenodd" stroke="none"/>
    </g>
    <g text-rendering="geometricPrecision" stroke-miterlimit="1.45" shape-rendering="geometricPrecision" transform="matrix(1,0,0,1,-133,-103)" stroke-linecap="butt">
      <path fill="none" d="M747 602.5 L921 602.5 L921 617.5 L936 617.5 L936 650.5 L747 650.5 Z" clip-path="url(#clipPath2)"/>
      <path fill="none" d="M921 602.5 L921 617.5 L936 617.5 Z" clip-path="url(#clipPath2)" fill-rule="evenodd"/>
      <text x="762.6328" xml:space="preserve" y="616.9023" clip-path="url(#clipPath2)" font-family="sans-serif" stroke="none">Controllers are responsible</text>
      <text x="760.4941" xml:space="preserve" y="631.0352" clip-path="url(#clipPath2)" font-family="sans-serif" stroke="none">for adding up all the counts</text>
      <text x="772.96" xml:space="preserve" y="645.168" clip-path="url(#clipPath2)" font-family="sans-serif" stroke="none">for a given event name.</text>
      <path fill="none" d="M491.9131 181.5063 L349.4016 239.0066" clip-path="url(#clipPath2)"/>
      <path d="M341.9828 242 L354.9819 242.1468 L350.329 238.6325 L351.2402 232.8732 Z" clip-path="url(#clipPath2)" stroke="none"/>
      <path fill="none" d="M570 181.5205 L570 234" clip-path="url(#clipPath2)"/>
      <path d="M570 242 L575 230 L570 233 L565 230 Z" clip-path="url(#clipPath2)" stroke="none"/>
      <path fill="none" d="M649.7165 181.5063 L795.3359 239.0595" clip-path="url(#clipPath2)"/>
      <path d="M802.7759 242 L793.4537 232.9393 L794.4059 238.6919 L789.7781 242.2392 Z" clip-path="url(#clipPath2)" stroke="none"/>
      <path fill="none" d="M281.7758 290 L280.1914 342.5134" clip-path="url(#clipPath2)"/>
      <path d="M279.9501 350.5098 L285.3098 338.666 L280.2216 341.5139 L275.3143 338.3644 Z" clip-path="url(#clipPath2)" stroke="none"/>
      <path fill="none" d="M570.2069 290 L570.6595 342.5101" clip-path="url(#clipPath2)"/>
      <path d="M570.7285 350.5098 L575.6249 338.4671 L570.6509 341.5101 L565.6252 338.5533 Z" clip-path="url(#clipPath2)" stroke="none"/>
      <path fill="none" d="M863.3965 290 L863.1702 342.5098" clip-path="url(#clipPath2)"/>
      <path d="M863.1357 350.5098 L868.1874 338.5314 L863.1746 341.5099 L858.1875 338.4883 Z" clip-path="url(#clipPath2)" stroke="none"/>
      <path fill="none" d="M571 413.4877 L571 479.9848" clip-path="url(#clipPath2)"/>
      <path d="M571 487.9848 L576 475.9848 L571 478.9848 L566 475.9848 Z" clip-path="url(#clipPath2)" stroke="none"/>
      <path fill="none" d="M316.605 413.4877 L449.3762 524.6609" clip-path="url(#clipPath2)"/>
      <path d="M455.5099 529.7968 L449.5193 518.2593 L448.6095 524.0189 L443.0994 525.9265 Z" clip-path="url(#clipPath2)" stroke="none"/>
      <path fill="none" d="M825.395 413.4877 L692.6238 524.6609" clip-path="url(#clipPath2)"/>
      <path d="M686.4901 529.7968 L698.9006 525.9265 L693.3906 524.0189 L692.4807 518.2594 Z" clip-path="url(#clipPath2)" stroke="none"/>
      <path fill="none" stroke-dasharray="6,2" d="M686.471 626.5 L746.9913 626.5" clip-path="url(#clipPath2)"/>
    </g>
  </g>
</svg>
