<?xml version="1.0" encoding="UTF-8"?><svg xmlns="http://www.w3.org/2000/svg" xmlns:xlink="http://www.w3.org/1999/xlink" fill-opacity="1" color-rendering="auto" color-interpolation="auto" text-rendering="auto" stroke="black" stroke-linecap="square" width="846" stroke-miterlimit="10" shape-rendering="auto" stroke-opacity="1" fill="black" stroke-dasharray="none" font-weight="normal" stroke-width="1" height="659" font-family="'Dialog'" font-style="normal" stroke-linejoin="miter" font-size="12px" stroke-dashoffset="0" image-rendering="auto">
  <!--Generated by ySVG 2.6-->
  <defs id="genericDefs"/>
  <g>
    <g fill="white" text-rendering="geometricPrecision" shape-rendering="geometricPrecision" transform="translate(-115,-77)" stroke="white">
      <rect x="115" width="846" height="659" y="77" clip-path="url(#clipPath2)" stroke="none"/>
    </g>
    <g fill="rgb(255,204,0)" text-rendering="geometricPrecision" shape-rendering="geometricPrecision" transform="matrix(1,0,0,1,-115,-77)" stroke="rgb(255,204,0)">
      <rect x="731" width="215" height="48" y="216.25" clip-path="url(#clipPath2)" stroke="none"/>
    </g>
    <g text-rendering="geometricPrecision" stroke-miterlimit="1.45" shape-rendering="geometricPrecision" transform="matrix(1,0,0,1,-115,-77)" stroke-linecap="butt">
      <rect fill="none" x="731" width="215" height="48" y="216.25" clip-path="url(#clipPath2)"/>
      <text x="777.5771" xml:space="preserve" y="230.6523" clip-path="url(#clipPath2)" font-family="sans-serif" stroke="none">checkin started topic</text>
      <text x="836.6016" xml:space="preserve" y="244.7852" clip-path="url(#clipPath2)" font-family="sans-serif" stroke="none"> </text>
      <text x="740.6719" xml:space="preserve" y="258.918" clip-path="url(#clipPath2)" font-family="sans-serif" stroke="none">(key=deskId, body=TerminalInfo)</text>
    </g>
    <g fill="rgb(255,204,0)" text-rendering="geometricPrecision" shape-rendering="geometricPrecision" transform="matrix(1,0,0,1,-115,-77)" stroke="rgb(255,204,0)">
      <rect x="422" width="246" height="48" y="216.25" clip-path="url(#clipPath2)" stroke="none"/>
    </g>
    <g text-rendering="geometricPrecision" stroke-miterlimit="1.45" shape-rendering="geometricPrecision" transform="matrix(1,0,0,1,-115,-77)" stroke-linecap="butt">
      <rect fill="none" x="422" width="246" height="48" y="216.25" clip-path="url(#clipPath2)"/>
      <text x="473.9346" xml:space="preserve" y="230.6523" clip-path="url(#clipPath2)" font-family="sans-serif" stroke="none">checkin completed topic</text>
      <text x="543.1016" xml:space="preserve" y="244.7852" clip-path="url(#clipPath2)" font-family="sans-serif" stroke="none"> </text>
      <text x="447.1719" xml:space="preserve" y="258.918" clip-path="url(#clipPath2)" font-family="sans-serif" stroke="none">(key=deskId, body=TerminalInfo)</text>
    </g>
    <g fill="rgb(255,204,0)" text-rendering="geometricPrecision" shape-rendering="geometricPrecision" transform="matrix(1,0,0,1,-115,-77)" stroke="rgb(255,204,0)">
      <rect x="130" width="255" height="48" y="216.25" clip-path="url(#clipPath2)" stroke="none"/>
    </g>
    <g text-rendering="geometricPrecision" stroke-miterlimit="1.45" shape-rendering="geometricPrecision" transform="matrix(1,0,0,1,-115,-77)" stroke-linecap="butt">
      <rect fill="none" x="130" width="255" height="48" y="216.25" clip-path="url(#clipPath2)"/>
      <text x="189.8975" xml:space="preserve" y="230.6523" clip-path="url(#clipPath2)" font-family="sans-serif" stroke="none">checkin cancelled topic</text>
      <text x="255.6016" xml:space="preserve" y="244.7852" clip-path="url(#clipPath2)" font-family="sans-serif" stroke="none"> </text>
      <text x="159.6719" xml:space="preserve" y="258.918" clip-path="url(#clipPath2)" font-family="sans-serif" stroke="none">(key=deskId, body=TerminalInfo)</text>
    </g>
    <g fill="rgb(204,255,255)" text-rendering="geometricPrecision" shape-rendering="geometricPrecision" transform="matrix(1,0,0,1,-115,-77)" stroke="rgb(204,255,255)">
      <path d="M440.2 311.3992 L676 311.3992 L649.8 374.3992 L414 374.3992 Z" fill-rule="evenodd" clip-path="url(#clipPath2)" stroke="none"/>
    </g>
    <g text-rendering="geometricPrecision" stroke-miterlimit="1.45" shape-rendering="geometricPrecision" transform="matrix(1,0,0,1,-115,-77)" stroke-linecap="butt">
      <path fill="none" d="M440.2 311.3992 L676 311.3992 L649.8 374.3992 L414 374.3992 Z" fill-rule="evenodd" clip-path="url(#clipPath2)"/>
      <text x="450.4268" xml:space="preserve" y="347.4344" clip-path="url(#clipPath2)" font-family="sans-serif" stroke="none">consumer::checkInEvent method</text>
    </g>
    <g fill="rgb(255,204,0)" text-rendering="geometricPrecision" shape-rendering="geometricPrecision" transform="matrix(1,0,0,1,-115,-77)" stroke="rgb(255,204,0)">
      <rect x="305" width="480" height="46.5" y="421.5484" clip-path="url(#clipPath2)" stroke="none"/>
    </g>
    <g text-rendering="geometricPrecision" stroke-miterlimit="1.45" shape-rendering="geometricPrecision" transform="matrix(1,0,0,1,-115,-77)" stroke-linecap="butt">
      <rect fill="none" x="305" width="480" height="46.5" y="421.5484" clip-path="url(#clipPath2)"/>
      <text x="444.3154" xml:space="preserve" y="435.2007" clip-path="url(#clipPath2)" font-family="sans-serif" stroke="none">windowed-checkins-by-area topic</text>
      <text x="543.1016" xml:space="preserve" y="449.3335" clip-path="url(#clipPath2)" font-family="sans-serif" stroke="none"> </text>
      <text x="326.0439" xml:space="preserve" y="463.4663" clip-path="url(#clipPath2)" font-family="sans-serif" stroke="none">(key=(areaId, windowStart), body="started" OR "completed" OR "cancelled")</text>
    </g>
    <g fill="rgb(204,255,255)" text-rendering="geometricPrecision" shape-rendering="geometricPrecision" transform="matrix(1,0,0,1,-115,-77)" stroke="rgb(204,255,255)">
      <path d="M440.2 510.2217 L676 510.2217 L649.8 573.2217 L414 573.2217 Z" fill-rule="evenodd" clip-path="url(#clipPath2)" stroke="none"/>
    </g>
    <g text-rendering="geometricPrecision" stroke-miterlimit="1.45" shape-rendering="geometricPrecision" transform="matrix(1,0,0,1,-115,-77)" stroke-linecap="butt">
      <path fill="none" d="M440.2 510.2217 L676 510.2217 L649.8 573.2217 L414 573.2217 Z" fill-rule="evenodd" clip-path="url(#clipPath2)"/>
      <text x="435.7314" xml:space="preserve" y="546.2569" clip-path="url(#clipPath2)" font-family="sans-serif" stroke="none">consumer::windowedCheckIn method</text>
    </g>
    <g text-rendering="geometricPrecision" shape-rendering="geometricPrecision" transform="matrix(1,0,0,1,410.375,545.1935)">
      <g clip-path="url(#clipPath3)">
        <svg xml:space="preserve" opacity="1" writing-mode="lr-tb" stop-color="rgb(0, 0, 0)" shape-rendering="auto" glyph-orientation-horizontal="0deg" color-profile="auto" lighting-color="rgb(255, 255, 255)" color="rgb(0, 0, 0)" font-weight="400" alignment-baseline="auto" font-style="normal" version="1.1" color-interpolation-filters="linearrgb" text-anchor="start" stroke-linecap="butt" color-interpolation="srgb" font-variant="normal" word-spacing="normal" fill-opacity="1" text-rendering="auto" clip-path="none" text-decoration="none" letter-spacing="normal" viewBox="0 0 40 48" glyph-orientation-vertical="auto" display="inline" font-size-adjust="none" overflow="hidden" fill="rgb(0, 0, 0)" font-stretch="normal" stroke-dasharray="none" stroke-miterlimit="4" stop-opacity="1" color-rendering="auto" font-size="12" pointer-events="visiblepainted" mask="none" direction="ltr" baseline-shift="baseline" enable-background="new 0 0 40 48" fill-rule="nonzero" image-rendering="auto" stroke-dashoffset="0" width="40px" marker-end="none" clip="auto" cursor="auto" stroke="none" filter="none" visibility="visible" kerning="auto" stroke-width="1" font-family="&quot;Arial&quot;,&quot;Helvetica&quot;,sans-serif" flood-opacity="1" clip-rule="nonzero" src="none" height="48px" unicode-bidi="normal" stroke-linejoin="miter" stroke-opacity="1" flood-color="rgb(0, 0, 0)" dominant-baseline="auto" marker-start="none" x="0px" marker-mid="none" y="0px">
<defs>
<clipPath clipPathUnits="userSpaceOnUse" id="clipPath1"><path d="M0 0 L846 0 L846 659 L0 659 L0 0 Z"/></clipPath><clipPath clipPathUnits="userSpaceOnUse" id="clipPath2"><path d="M115 77 L961 77 L961 736 L115 736 L115 77 Z"/></clipPath><clipPath clipPathUnits="userSpaceOnUse" id="clipPath3"><path d="M-410.375 -545.1935 L435.625 -545.1935 L435.625 113.8065 L-410.375 113.8065 L-410.375 -545.1935 Z"/></clipPath></defs>
<linearGradient gradientTransform="matrix(1 0 0 1 -370.2002 -614.5742)" x1="370.2002" x2="409.4502" gradientUnits="userSpaceOnUse" y1="655.0938" y2="655.0938" id="svg1.SVGID_1_">
	<stop offset="0" style="stop-color:#4D4D4D"/>
	<stop offset="0.0558" style="stop-color:#5F5F5F"/>
	<stop offset="0.2103" style="stop-color:#8D8D8D"/>
	<stop offset="0.3479" style="stop-color:#AEAEAE"/>
	<stop offset="0.4623" style="stop-color:#C2C2C2"/>
	<stop offset="0.5394" style="stop-color:#C9C9C9"/>
	<stop offset="0.6247" style="stop-color:#C5C5C5"/>
	<stop offset="0.7072" style="stop-color:#BABABA"/>
	<stop offset="0.7885" style="stop-color:#A6A6A6"/>
	<stop offset="0.869" style="stop-color:#8B8B8B"/>
	<stop offset="0.9484" style="stop-color:#686868"/>
	<stop offset="1" style="stop-color:#4D4D4D"/>
</linearGradient>
<path fill="url(#svg1.SVGID_1_)" d="M19.625,37.613C8.787,37.613,0,35.738,0,33.425v10c0,2.313,8.787,4.188,19.625,4.188  c10.839,0,19.625-1.875,19.625-4.188v-10C39.25,35.738,30.464,37.613,19.625,37.613z"/>
<linearGradient gradientTransform="matrix(1 0 0 1 -370.2002 -614.5742)" x1="370.2002" x2="409.4502" gradientUnits="userSpaceOnUse" y1="649.0938" y2="649.0938" id="svg1.SVGID_2_">
	<stop offset="0" style="stop-color:#B3B3B3"/>
	<stop offset="0.0171" style="stop-color:#B6B6B6"/>
	<stop offset="0.235" style="stop-color:#D7D7D7"/>
	<stop offset="0.4168" style="stop-color:#EBEBEB"/>
	<stop offset="0.5394" style="stop-color:#F2F2F2"/>
	<stop offset="0.6579" style="stop-color:#EEEEEE"/>
	<stop offset="0.7724" style="stop-color:#E3E3E3"/>
	<stop offset="0.8853" style="stop-color:#CFCFCF"/>
	<stop offset="0.9965" style="stop-color:#B4B4B4"/>
	<stop offset="1" style="stop-color:#B3B3B3"/>
</linearGradient>
<path fill="url(#svg1.SVGID_2_)" d="M19.625,37.613c10.839,0,19.625-1.875,19.625-4.188l-1.229-2c0,2.168-8.235,3.927-18.396,3.927  c-9.481,0-17.396-1.959-18.396-3.927l-1.229,2C0,35.738,8.787,37.613,19.625,37.613z"/>
<linearGradient gradientTransform="matrix(1 0 0 1 -370.2002 -614.5742)" x1="371.4297" x2="408.2217" gradientUnits="userSpaceOnUse" y1="646" y2="646" id="svg1.SVGID_3_">
	<stop offset="0" style="stop-color:#C9C9C9"/>
	<stop offset="1" style="stop-color:#808080"/>
</linearGradient>
<ellipse rx="18.396" fill="url(#svg1.SVGID_3_)" ry="3.926" cx="19.625" cy="31.425"/>
<linearGradient gradientTransform="matrix(1 0 0 1 -370.2002 -614.5742)" x1="370.2002" x2="409.4502" gradientUnits="userSpaceOnUse" y1="641.0938" y2="641.0938" id="svg1.SVGID_4_">
	<stop offset="0" style="stop-color:#4D4D4D"/>
	<stop offset="0.0558" style="stop-color:#5F5F5F"/>
	<stop offset="0.2103" style="stop-color:#8D8D8D"/>
	<stop offset="0.3479" style="stop-color:#AEAEAE"/>
	<stop offset="0.4623" style="stop-color:#C2C2C2"/>
	<stop offset="0.5394" style="stop-color:#C9C9C9"/>
	<stop offset="0.6247" style="stop-color:#C5C5C5"/>
	<stop offset="0.7072" style="stop-color:#BABABA"/>
	<stop offset="0.7885" style="stop-color:#A6A6A6"/>
	<stop offset="0.869" style="stop-color:#8B8B8B"/>
	<stop offset="0.9484" style="stop-color:#686868"/>
	<stop offset="1" style="stop-color:#4D4D4D"/>
</linearGradient>
<path fill="url(#svg1.SVGID_4_)" d="M19.625,23.613C8.787,23.613,0,21.738,0,19.425v10c0,2.313,8.787,4.188,19.625,4.188  c10.839,0,19.625-1.875,19.625-4.188v-10C39.25,21.738,30.464,23.613,19.625,23.613z"/>
<linearGradient gradientTransform="matrix(1 0 0 1 -370.2002 -614.5742)" x1="370.2002" x2="409.4502" gradientUnits="userSpaceOnUse" y1="635.0938" y2="635.0938" id="svg1.SVGID_5_">
	<stop offset="0" style="stop-color:#B3B3B3"/>
	<stop offset="0.0171" style="stop-color:#B6B6B6"/>
	<stop offset="0.235" style="stop-color:#D7D7D7"/>
	<stop offset="0.4168" style="stop-color:#EBEBEB"/>
	<stop offset="0.5394" style="stop-color:#F2F2F2"/>
	<stop offset="0.6579" style="stop-color:#EEEEEE"/>
	<stop offset="0.7724" style="stop-color:#E3E3E3"/>
	<stop offset="0.8853" style="stop-color:#CFCFCF"/>
	<stop offset="0.9965" style="stop-color:#B4B4B4"/>
	<stop offset="1" style="stop-color:#B3B3B3"/>
</linearGradient>
<path fill="url(#svg1.SVGID_5_)" d="M19.625,23.613c10.839,0,19.625-1.875,19.625-4.188l-1.229-2c0,2.168-8.235,3.926-18.396,3.926  c-9.481,0-17.396-1.959-18.396-3.926l-1.229,2C0,21.738,8.787,23.613,19.625,23.613z"/>
<linearGradient gradientTransform="matrix(1 0 0 1 -370.2002 -614.5742)" x1="371.4297" x2="408.2217" gradientUnits="userSpaceOnUse" y1="632" y2="632" id="svg1.SVGID_6_">
	<stop offset="0" style="stop-color:#C9C9C9"/>
	<stop offset="1" style="stop-color:#808080"/>
</linearGradient>
<ellipse rx="18.396" fill="url(#svg1.SVGID_6_)" ry="3.926" cx="19.625" cy="17.426"/>
<linearGradient gradientTransform="matrix(1 0 0 1 -370.2002 -614.5742)" x1="370.2002" x2="409.4502" gradientUnits="userSpaceOnUse" y1="627.5938" y2="627.5938" id="svg1.SVGID_7_">
	<stop offset="0" style="stop-color:#4D4D4D"/>
	<stop offset="0.0558" style="stop-color:#5F5F5F"/>
	<stop offset="0.2103" style="stop-color:#8D8D8D"/>
	<stop offset="0.3479" style="stop-color:#AEAEAE"/>
	<stop offset="0.4623" style="stop-color:#C2C2C2"/>
	<stop offset="0.5394" style="stop-color:#C9C9C9"/>
	<stop offset="0.6247" style="stop-color:#C5C5C5"/>
	<stop offset="0.7072" style="stop-color:#BABABA"/>
	<stop offset="0.7885" style="stop-color:#A6A6A6"/>
	<stop offset="0.869" style="stop-color:#8B8B8B"/>
	<stop offset="0.9484" style="stop-color:#686868"/>
	<stop offset="1" style="stop-color:#4D4D4D"/>
</linearGradient>
<path fill="url(#svg1.SVGID_7_)" d="M19.625,10.113C8.787,10.113,0,8.238,0,5.925v10c0,2.313,8.787,4.188,19.625,4.188  c10.839,0,19.625-1.875,19.625-4.188v-10C39.25,8.238,30.464,10.113,19.625,10.113z"/>
<linearGradient gradientTransform="matrix(1 0 0 1 -370.2002 -614.5742)" x1="370.2002" x2="409.4502" gradientUnits="userSpaceOnUse" y1="621.5938" y2="621.5938" id="svg1.SVGID_8_">
	<stop offset="0" style="stop-color:#B3B3B3"/>
	<stop offset="0.0171" style="stop-color:#B6B6B6"/>
	<stop offset="0.235" style="stop-color:#D7D7D7"/>
	<stop offset="0.4168" style="stop-color:#EBEBEB"/>
	<stop offset="0.5394" style="stop-color:#F2F2F2"/>
	<stop offset="0.6579" style="stop-color:#EEEEEE"/>
	<stop offset="0.7724" style="stop-color:#E3E3E3"/>
	<stop offset="0.8853" style="stop-color:#CFCFCF"/>
	<stop offset="0.9965" style="stop-color:#B4B4B4"/>
	<stop offset="1" style="stop-color:#B3B3B3"/>
</linearGradient>
<path fill="url(#svg1.SVGID_8_)" d="M19.625,10.113c10.839,0,19.625-1.875,19.625-4.188l-1.229-2c0,2.168-8.235,3.926-18.396,3.926  c-9.481,0-17.396-1.959-18.396-3.926L0,5.925C0,8.238,8.787,10.113,19.625,10.113z"/>
<linearGradient gradientTransform="matrix(1 0 0 1 -370.2002 -614.5742)" x1="371.4297" x2="408.2217" gradientUnits="userSpaceOnUse" y1="618.5" y2="618.5" id="svg1.SVGID_9_">
	<stop offset="0" style="stop-color:#C9C9C9"/>
	<stop offset="1" style="stop-color:#808080"/>
</linearGradient>
<ellipse rx="18.396" fill="url(#svg1.SVGID_9_)" ry="3.926" cx="19.625" cy="3.926"/>
<path fill="#FFFFFF" d="M31.291,46.792c0,0-4.313,0.578-7.249,0.694  C20.917,47.613,15,47.613,15,47.613l-2.443-10.279l-0.119-2.283l-1.231-1.842L9.789,23.024l-0.082-0.119L9.3,20.715l-1.45-1.44  L5.329,8.793c0,0,5.296,0.882,7.234,1.07s8.375,0.25,8.375,0.25l3,9.875l-0.25,1.313l1.063,2.168l2.312,9.644l-0.375,1.875  l1.627,2.193L31.291,46.792z" enable-background="new    " opacity="0.24"/>
</svg>
      </g>
    </g>
    <g text-rendering="geometricPrecision" stroke-miterlimit="1.45" shape-rendering="geometricPrecision" font-family="sans-serif" transform="matrix(1,0,0,1,-115,-77)" stroke-linecap="butt">
      <text x="502.5518" xml:space="preserve" y="687.4081" clip-path="url(#clipPath2)" stroke="none">database table</text>
      <text x="543.1016" xml:space="preserve" y="701.5409" clip-path="url(#clipPath2)" stroke="none"> </text>
      <text x="349.4785" xml:space="preserve" y="715.6737" clip-path="url(#clipPath2)" stroke="none">keyed by (areaId, windowStart, started OR completed OR cancelled)</text>
    </g>
    <g fill="rgb(204,255,255)" text-rendering="geometricPrecision" shape-rendering="geometricPrecision" transform="matrix(1,0,0,1,-115,-77)" stroke="rgb(204,255,255)">
      <path d="M440.2 92.75 L676 92.75 L649.8 155.75 L414 155.75 Z" fill-rule="evenodd" clip-path="url(#clipPath2)" stroke="none"/>
    </g>
    <g text-rendering="geometricPrecision" stroke-miterlimit="1.45" shape-rendering="geometricPrecision" transform="matrix(1,0,0,1,-115,-77)" stroke-linecap="butt">
      <path fill="none" d="M440.2 92.75 L676 92.75 L649.8 155.75 L414 155.75 Z" fill-rule="evenodd" clip-path="url(#clipPath2)"/>
      <text x="495.8867" xml:space="preserve" y="128.7852" clip-path="url(#clipPath2)" font-family="sans-serif" stroke="none">airport simulator</text>
      <path fill="none" d="M769.8779 264.25 L642.6179 308.7581" clip-path="url(#clipPath2)"/>
      <path d="M635.0665 311.3992 L648.0444 312.1572 L643.5619 308.428 L644.743 302.7179 Z" clip-path="url(#clipPath2)" stroke="none"/>
      <path fill="none" d="M545 264.25 L545 303.3704" clip-path="url(#clipPath2)"/>
      <path d="M545 311.3704 L550 299.3704 L545 302.3704 L540 299.3704 Z" clip-path="url(#clipPath2)" stroke="none"/>
      <path fill="none" d="M324.7192 264.25 L449.2406 308.7092" clip-path="url(#clipPath2)"/>
      <path d="M456.7747 311.3992 L447.1548 302.6553 L448.2988 308.3729 L443.7922 312.073 Z" clip-path="url(#clipPath2)" stroke="none"/>
      <path fill="none" d="M545 374.3944 L545 413.5484" clip-path="url(#clipPath2)"/>
      <path d="M545 421.5484 L550 409.5484 L545 412.5484 L540 409.5484 Z" clip-path="url(#clipPath2)" stroke="none"/>
      <path fill="none" d="M545 468.0484 L545 502.2451" clip-path="url(#clipPath2)"/>
      <path d="M545 510.2451 L550 498.2451 L545 501.2451 L540 498.2451 Z" clip-path="url(#clipPath2)" stroke="none"/>
      <path fill="none" d="M545 573.214 L545 614.2237" clip-path="url(#clipPath2)"/>
      <path d="M545 622.2237 L550 610.2237 L545 613.2237 L540 610.2237 Z" clip-path="url(#clipPath2)" stroke="none"/>
      <path fill="none" d="M466.9131 155.7563 L324.4016 213.2566" clip-path="url(#clipPath2)"/>
      <path d="M316.9828 216.25 L329.9819 216.3968 L325.329 212.8825 L326.2402 207.1232 Z" clip-path="url(#clipPath2)" stroke="none"/>
      <path fill="none" d="M545 155.7705 L545 208.25" clip-path="url(#clipPath2)"/>
      <path d="M545 216.25 L550 204.25 L545 207.25 L540 204.25 Z" clip-path="url(#clipPath2)" stroke="none"/>
      <path fill="none" d="M624.7165 155.7563 L770.3359 213.3095" clip-path="url(#clipPath2)"/>
      <path d="M777.7759 216.25 L768.4537 207.1893 L769.4059 212.9419 L764.7781 216.4892 Z" clip-path="url(#clipPath2)" stroke="none"/>
    </g>
  </g>
</svg>
